<svg xmlns="http://www.w3.org/2000/svg" version="1.1" xmlns:xlink="http://www.w3.org/1999/xlink" xmlns:svgjs="http://svgjs.com/svgjs" width="512" height="512" x="0" y="0" viewBox="0 0 512 512" style="enable-background:new 0 0 512 512" xml:space="preserve" class=""><g><g xmlns="http://www.w3.org/2000/svg"><g><path d="m400.098 362.688h-52.755c-8.836 0-16-7.163-16-16s7.164-16 16-16h52.755c34.645 0 62.83-28.188 62.83-62.836 0-34.646-28.186-62.834-62.83-62.834-8.148 0-16.073 1.537-23.554 4.567-5.656 2.291-12.123 1.164-16.673-2.901-4.549-4.068-6.388-10.369-4.741-16.246 2.523-9.003 3.803-18.356 3.803-27.801 0-56.756-46.174-102.93-102.931-102.93-56.756 0-102.93 46.174-102.93 102.93 0 9.443 1.279 18.798 3.802 27.803 1.646 5.876-.193 12.177-4.743 16.244-4.549 4.068-11.014 5.192-16.672 2.901-7.481-3.03-15.405-4.567-23.553-4.567-34.647 0-62.835 28.188-62.835 62.834 0 34.647 28.188 62.836 62.835 62.836h52.754c8.836 0 16 7.163 16 16s-7.164 16-16 16h-52.754c-52.292 0-94.835-42.543-94.835-94.836 0-52.292 42.543-94.834 94.835-94.834 3.224 0 6.425.16 9.599.479-.289-3.604-.434-7.228-.434-10.859 0-74.4 60.529-134.93 134.93-134.93s134.931 60.529 134.931 134.93c0 3.632-.145 7.254-.434 10.859 3.174-.318 6.375-.479 9.599-.479 52.29 0 94.83 42.542 94.83 94.834.001 52.293-42.54 94.836-94.829 94.836z" fill="#ffffff" data-original="#000000" class=""></path></g><g><path d="m186.227 287.389c-3.859 0-7.73-1.388-10.801-4.2-6.517-5.968-6.962-16.088-.995-22.605l69.771-76.193c5.968-6.517 16.089-6.963 22.605-.994 6.517 5.968 6.962 16.088.995 22.605l-69.771 76.193c-3.155 3.446-7.472 5.194-11.804 5.194z" fill="#ffffff" data-original="#000000" class=""></path></g><g><path d="m325.778 287.389c-4.332 0-8.648-1.748-11.805-5.194l-69.771-76.193c-5.967-6.518-5.522-16.638.995-22.605 6.518-5.967 16.639-5.521 22.606.994l69.771 76.193c5.967 6.518 5.522 16.638-.995 22.605-3.07 2.811-6.942 4.2-10.801 4.2z" fill="#ffffff" data-original="#000000" class=""></path></g><g><path d="m256.002 409.389c-8.836 0-16-7.163-16-16v-192.967c0-8.837 7.164-16 16-16s16 7.163 16 16v192.967c0 8.837-7.164 16-16 16z" fill="#ffffff" data-original="#000000" class=""></path></g><g><path d="m256.002 484.293c-8.836 0-16-7.163-16-16v-23.611c0-8.837 7.164-16 16-16s16 7.163 16 16v23.611c0 8.837-7.164 16-16 16z" fill="#ffffff" data-original="#000000" class=""></path></g></g></g></svg>