<svg width="64" height="43" viewBox="0 0 64 43" fill="none" xmlns="http://www.w3.org/2000/svg">
<path d="M36.1905 10.1904C32.4451 10.1904 29.4048 13.2286 29.4048 16.9761C29.4048 20.7237 32.4451 23.764 36.1905 23.764C39.9402 23.764 42.9762 20.7259 42.9762 16.9761C42.9762 13.2264 39.9381 10.1904 36.1905 10.1904ZM36.1905 21.5C33.6979 21.5 31.6667 19.4709 31.6667 16.974C31.6667 14.4771 33.6957 12.4502 36.1905 12.4502C38.6874 12.4502 40.7143 14.4792 40.7143 16.974C40.7143 19.4688 38.6853 21.5 36.1905 21.5Z" fill="#D0402B"/>
<path d="M9.04785 0.0107422V33.9393H63.3336V0.0107422H9.04785ZM61.0738 7.66327V31.6774H11.3119V2.27265H61.0738V7.66327Z" fill="#D0402B"/>
<path d="M51.2024 36.2034H6.78583V4.53674H4.52393V38.4653H58.8118V36.2034H56.5499H51.2024Z" fill="#D0402B"/>
<path d="M46.6785 40.7272H2.26191V9.06055H0V42.9891H54.2879V40.7272H52.026H46.6785Z" fill="#D0402B"/>
<path d="M14.7036 4.60571H21.4893V6.86762H14.7036V4.60571Z" fill="#D0402B"/>
<path d="M14.7036 27.1558H21.4893V29.4177H14.7036V27.1558Z" fill="#D0402B"/>
<path d="M50.894 4.60571H57.6798V6.86762H50.894V4.60571Z" fill="#D0402B"/>
<path d="M50.894 27.1558H57.6798V29.4177H50.894V27.1558Z" fill="#D0402B"/>
</svg>
