<svg width="57" height="57" viewBox="0 0 57 57" fill="none" xmlns="http://www.w3.org/2000/svg">
<path d="M43.9375 10.6875H13.0625C11.7508 10.6875 10.6875 11.7508 10.6875 13.0625V43.9375C10.6875 45.2492 11.7508 46.3125 13.0625 46.3125H43.9375C45.2492 46.3125 46.3125 45.2492 46.3125 43.9375V13.0625C46.3125 11.7508 45.2492 10.6875 43.9375 10.6875Z" stroke="#D0402B" stroke-width="2" stroke-miterlimit="10"/>
<path d="M34.4375 21.375H22.5625C21.9067 21.375 21.375 21.9067 21.375 22.5625V34.4375C21.375 35.0933 21.9067 35.625 22.5625 35.625H34.4375C35.0933 35.625 35.625 35.0933 35.625 34.4375V22.5625C35.625 21.9067 35.0933 21.375 34.4375 21.375Z" stroke="#D0402B" stroke-width="2" stroke-miterlimit="10"/>
<path d="M19 55.8125V46.5381" stroke="#D0402B" stroke-width="2" stroke-miterlimit="10" stroke-linecap="round"/>
<path d="M28.5 55.8125V46.5381" stroke="#D0402B" stroke-width="2" stroke-miterlimit="10" stroke-linecap="round"/>
<path d="M38 55.8125V46.5381" stroke="#D0402B" stroke-width="2" stroke-miterlimit="10" stroke-linecap="round"/>
<path d="M19 10.6875V1.1875" stroke="#D0402B" stroke-width="2" stroke-miterlimit="10" stroke-linecap="round"/>
<path d="M28.5 10.5687V1.1875" stroke="#D0402B" stroke-width="2" stroke-miterlimit="10" stroke-linecap="round"/>
<path d="M38 10.6875V1.1875" stroke="#D0402B" stroke-width="2" stroke-miterlimit="10" stroke-linecap="round"/>
<path d="M55.8125 38H46.3125" stroke="#D0402B" stroke-width="2" stroke-miterlimit="10" stroke-linecap="round"/>
<path d="M55.8125 28.5H46.3125" stroke="#D0402B" stroke-width="2" stroke-miterlimit="10" stroke-linecap="round"/>
<path d="M55.8125 19H46.3125" stroke="#D0402B" stroke-width="2" stroke-miterlimit="10" stroke-linecap="round"/>
<path d="M10.6875 38H1.1875" stroke="#D0402B" stroke-width="2" stroke-miterlimit="10" stroke-linecap="round"/>
<path d="M10.5331 28.5H1.1875" stroke="#D0402B" stroke-width="2" stroke-miterlimit="10" stroke-linecap="round"/>
<path d="M10.6875 19H1.1875" stroke="#D0402B" stroke-width="2" stroke-miterlimit="10" stroke-linecap="round"/>
</svg>
