<svg width="46" height="47" viewBox="0 0 46 47" fill="none" xmlns="http://www.w3.org/2000/svg">
<path d="M27.9622 13.3333H29.2331C31.3387 13.3333 33.0456 15.0402 33.0456 17.1458C33.0456 17.8477 32.4766 18.4167 31.7747 18.4167C31.0729 18.4167 30.5039 17.8477 30.5039 17.1458C30.5039 16.444 29.9349 15.875 29.2331 15.875H16.5247C15.8229 15.875 15.2539 16.444 15.2539 17.1458V20.0248C15.2539 20.6572 15.7189 21.1934 16.345 21.2828L29.7722 23.201C31.6505 23.4693 33.0456 25.0779 33.0456 26.9752V29.8542C33.0456 31.9598 31.3387 33.6667 29.2331 33.6667H27.9622V34.9375C27.9622 35.6394 27.3933 36.2083 26.6914 36.2083C25.9896 36.2083 25.4206 35.6394 25.4206 34.9375V33.6667H20.3372V34.9375C20.3372 35.6394 19.7683 36.2083 19.0664 36.2083C18.3646 36.2083 17.7956 35.6394 17.7956 34.9375V33.6667H16.5247C14.4192 33.6667 12.7122 31.9598 12.7122 29.8542C12.7122 29.1523 13.2812 28.5833 13.9831 28.5833C14.6849 28.5833 15.2539 29.1523 15.2539 29.8542C15.2539 30.556 15.8229 31.125 16.5247 31.125H29.2331C29.9349 31.125 30.5039 30.556 30.5039 29.8542V26.9752C30.5039 26.3428 30.0389 25.8066 29.4128 25.7171L15.9856 23.799C14.1074 23.5307 12.7122 21.9221 12.7122 20.0248V17.1458C12.7122 15.0402 14.4192 13.3333 16.5247 13.3333H17.7956V12.0625C17.7956 11.3606 18.3646 10.7917 19.0664 10.7917C19.7683 10.7917 20.3372 11.3606 20.3372 12.0625V13.3333H25.4206V12.0625C25.4206 11.3606 25.9896 10.7917 26.6914 10.7917C27.3933 10.7917 27.9622 11.3606 27.9622 12.0625V13.3333ZM0.00391306 23.5C0.00391306 10.8665 10.2454 0.625 22.8789 0.625C35.5124 0.625 45.7539 10.8665 45.7539 23.5C45.7539 36.1335 35.5124 46.375 22.8789 46.375C18.693 46.375 14.6708 45.2476 11.1596 43.1488L1.67662 46.3098C0.602528 46.6678 -0.368253 45.5485 0.138078 44.5358L4.11354 36.5849C1.45648 32.7819 0.00391306 28.2494 0.00391306 23.5ZM10.9187 40.5499C11.2812 40.4291 11.6788 40.4778 12.0014 40.6825C15.2287 42.7301 18.9707 43.8333 22.8789 43.8333C34.1087 43.8333 43.2122 34.7298 43.2122 23.5C43.2122 12.2702 34.1087 3.16667 22.8789 3.16667C11.6491 3.16667 2.54558 12.2702 2.54558 23.5C2.54558 27.9644 3.9866 32.207 6.61101 35.7005C6.90035 36.0856 6.94705 36.6012 6.73162 37.0321L3.78349 42.9283L10.9187 40.5499Z" fill="#D0402B"/>
</svg>
