<svg width="72" height="44" viewBox="0 0 72 44" fill="none" xmlns="http://www.w3.org/2000/svg">
<path d="M28.9877 21.1329C29.3833 21.1329 29.7364 20.9722 29.9822 20.6807C30.2583 20.3533 30.3626 19.8938 30.2757 19.3869L29.4081 14.3275C29.3583 14.0368 29.5289 13.5113 29.7402 13.3054L33.4156 9.72267C33.878 9.27198 34.0474 8.7187 33.8804 8.20469C33.7135 7.69083 33.2512 7.34272 32.6121 7.24987L27.5328 6.51166C27.2407 6.46919 26.7939 6.14452 26.6633 5.87998L24.3917 1.27777C24.106 0.698608 23.632 0.366486 23.0915 0.366486C22.551 0.366486 22.077 0.69876 21.7913 1.27777L19.5197 5.88014C19.3893 6.14453 18.9424 6.46919 18.6505 6.51166L13.5709 7.24987C12.9318 7.34272 12.4695 7.69082 12.3026 8.20484C12.1356 8.7187 12.3052 9.27198 12.7676 9.72283L16.443 13.3054C16.6542 13.5113 16.825 14.0366 16.7751 14.3273L15.9074 19.3868C15.8204 19.8938 15.9246 20.3533 16.2007 20.6807C16.6119 21.1687 17.3282 21.274 18.0109 20.9151L22.5542 18.5265C22.6496 18.4764 22.841 18.4227 23.0915 18.4227C23.342 18.4227 23.5334 18.4764 23.6288 18.5265L28.1718 20.9151C28.4467 21.0597 28.7211 21.1329 28.9877 21.1329ZM23.0917 16.5962C22.5816 16.5962 22.0891 16.7074 21.7044 16.9099L17.8368 18.9432L18.5756 14.6362C18.7266 13.7555 18.3579 12.6211 17.7182 11.9973L14.5894 8.94762L18.9135 8.31915C19.7978 8.19053 20.7627 7.4893 21.158 6.68822L23.0918 2.77034L25.0256 6.68822C25.4209 7.48945 26.3859 8.19053 27.2703 8.31915L31.5943 8.94762L28.4654 11.9975C27.8257 12.6211 27.457 13.7553 27.608 14.636L28.3467 18.9432L24.4792 16.9099C24.0943 16.7076 23.6016 16.5962 23.0917 16.5962Z" fill="#D0402B"/>
<path d="M54.2158 21.1329C54.6116 21.1329 54.9645 20.9722 55.2104 20.6807C55.4865 20.3533 55.5907 19.8936 55.5037 19.3868L54.6358 14.3273C54.586 14.0366 54.7568 13.5113 54.968 13.3054L58.6435 9.72267C59.1059 9.27198 59.2753 8.7187 59.1085 8.20469C58.9413 7.69083 58.4791 7.34272 57.8401 7.24987L52.761 6.51166C52.4689 6.46919 52.022 6.14452 51.8914 5.87998L49.6198 1.27777C49.334 0.698608 48.8602 0.366486 48.3197 0.366486C47.7792 0.366486 47.3053 0.69876 47.0195 1.27777L44.7479 5.87983C44.6175 6.14437 44.1704 6.46919 43.8785 6.51166L38.7989 7.24987C38.1598 7.34272 37.6975 7.69082 37.5306 8.20484C37.3636 8.7187 37.5333 9.27198 37.9956 9.72283L41.671 13.3054C41.8823 13.5113 42.053 14.0366 42.0031 14.3273L41.1355 19.3868C41.0486 19.8938 41.1526 20.3533 41.4288 20.6807C41.8402 21.1687 42.5561 21.274 43.2392 20.9151L47.7824 18.5265C47.8778 18.4764 48.0691 18.4227 48.3197 18.4227C48.5702 18.4227 48.7614 18.4764 48.8568 18.5265L53.4003 20.9151C53.6752 21.0597 53.9495 21.1329 54.2158 21.1329ZM48.3197 16.5962C47.8095 16.5962 47.3169 16.7074 46.9323 16.9099L43.0649 18.9432L43.8036 14.6362C43.9546 13.7555 43.5859 12.6211 42.9462 11.9973L39.8174 8.94762L44.1415 8.31915C45.0257 8.19053 45.9904 7.48945 46.386 6.68822L48.3198 2.77034L50.2535 6.68822C50.6489 7.48945 51.6139 8.19053 52.4983 8.31915L56.8221 8.94762L53.6934 11.9975C53.0535 12.6211 52.685 13.7555 52.836 14.6362L53.5749 18.9432L49.7072 16.9099C49.3223 16.7076 48.8297 16.5962 48.3197 16.5962Z" fill="#D0402B"/>
<path d="M20.3723 29.8835L15.2927 29.1449C15.0009 29.1026 14.554 28.7777 14.4235 28.5133L12.1519 23.9108C11.866 23.332 11.3922 23 10.8517 23C10.3112 23 9.83737 23.3321 9.55152 23.9111L7.28009 28.513C7.14949 28.7777 6.70261 29.1026 6.41067 29.1449L1.33127 29.8835C0.692294 29.9761 0.22988 30.3243 0.0629061 30.838C-0.10422 31.3522 0.0653414 31.9056 0.527755 32.3566L4.20317 35.9389C4.41443 36.145 4.58521 36.6706 4.53529 36.9613L3.66769 42.0195C3.58078 42.5266 3.68489 42.9864 3.96115 43.3136C4.37258 43.8015 5.08888 43.9069 5.77139 43.548L10.3144 41.1599C10.4098 41.1096 10.6012 41.0559 10.8517 41.0559C11.1022 41.0559 11.2936 41.1096 11.389 41.1599L15.932 43.548C16.2067 43.6925 16.4812 43.7658 16.7475 43.7658C17.1431 43.7658 17.4964 43.6051 17.7422 43.3135C18.0183 42.9861 18.1226 42.5264 18.0355 42.0197L17.1681 36.9613C17.1182 36.6706 17.289 36.145 17.5002 35.9392L21.1758 32.3563C21.6382 31.9053 21.8076 31.3519 21.6405 30.8379C21.4734 30.3243 21.0111 29.9762 20.3723 29.8835ZM16.2252 34.6314C15.5854 35.2553 15.2169 36.3898 15.3679 37.2701L16.1064 41.5765L12.2389 39.5434C11.8543 39.3413 11.3616 39.2297 10.8517 39.2297C10.3418 39.2297 9.84909 39.3408 9.46445 39.5434L5.59695 41.5763L6.33563 37.2701C6.48662 36.3894 6.11812 35.255 5.47823 34.6311L2.3491 31.5813L6.67323 30.9525C7.55742 30.8242 8.52243 30.1231 8.91802 29.3214L10.8517 25.4039L12.7855 29.3217C13.1811 30.1231 14.1461 30.8242 15.0302 30.9525L19.3544 31.5813L16.2252 34.6314Z" fill="#D0402B"/>
<path d="M45.5206 29.7512L40.441 29.0125C40.1492 28.9702 39.7023 28.6454 39.5717 28.381L37.3003 23.7785C37.0145 23.1996 36.5406 22.8677 36.0001 22.8677C35.4596 22.8677 34.9858 23.1998 34.7 23.7788L32.4285 28.3807C32.2979 28.6454 31.851 28.9702 31.5591 29.0125L26.4797 29.7512C25.8407 29.8438 25.3783 30.192 25.2113 30.7057C25.0442 31.2199 25.2138 31.7733 25.6762 32.2243L29.3516 35.8066C29.5629 36.0127 29.7337 36.5383 29.6837 36.829L28.8161 41.8872C28.7292 42.3942 28.8333 42.8538 29.1094 43.1813C29.5209 43.6691 30.2366 43.7746 30.9197 43.4157L35.4627 41.0275C35.5581 40.9773 35.7496 40.9236 36.0003 40.9236C36.2508 40.9236 36.442 40.9773 36.5374 41.0275L41.0806 43.4157C41.3553 43.5602 41.6296 43.6335 41.896 43.6335C42.2917 43.6335 42.645 43.4728 42.8907 43.1812C43.1668 42.8538 43.271 42.3941 43.1841 41.8872L42.3165 36.829C42.2666 36.5383 42.4374 36.0127 42.6487 35.8069L46.3241 32.2243C46.7866 31.7733 46.9559 31.2199 46.7889 30.7057C46.622 30.192 46.1595 29.8439 45.5206 29.7512ZM41.3734 34.4991C40.7337 35.123 40.3651 36.2573 40.5162 37.138L41.2547 41.4441L37.3874 39.4111C37.0029 39.2089 36.51 39.0974 36.0001 39.0974C35.4902 39.0974 34.9975 39.2085 34.6127 39.4111L30.7452 41.4441L31.4839 37.138C31.6349 36.2573 31.2664 35.123 30.6265 34.4989L27.4974 31.4491L31.8215 30.8203C32.7057 30.6919 33.6707 29.9909 34.0663 29.1894L36 25.2715L37.934 29.1896C38.3296 29.9909 39.2944 30.6919 40.1786 30.8203L44.5029 31.4491L41.3734 34.4991Z" fill="#D0402B"/>
<path d="M71.4722 32.2242C71.9346 31.7735 72.104 31.22 71.937 30.7059C71.7699 30.1919 71.3077 29.8439 70.6687 29.7514L65.5891 29.0127C65.2972 28.9704 64.8503 28.6456 64.7197 28.3812L62.4483 23.7785C62.1624 23.1996 61.6884 22.8675 61.1481 22.8675C60.6076 22.8675 60.1338 23.1998 59.8479 23.7788L57.5763 28.381C57.4459 28.6454 56.9989 28.9702 56.7068 29.0125L51.6277 29.7512C50.9887 29.8438 50.5266 30.192 50.3593 30.7057C50.1922 31.2197 50.3616 31.7732 50.8242 32.2245L54.4994 35.8067C54.7107 36.0128 54.8815 36.5384 54.8317 36.8291L53.9641 41.8874C53.8773 42.3944 53.9813 42.8539 54.2577 43.1815C54.5035 43.4729 54.8568 43.6337 55.2524 43.6337C55.5188 43.6337 55.7932 43.5606 56.0678 43.4159L60.611 41.0277C60.7064 40.9775 60.8976 40.9237 61.1479 40.9237C61.3986 40.9237 61.5901 40.9775 61.6854 41.0277L66.2287 43.416C66.9115 43.7745 67.6275 43.6694 68.0389 43.1813C68.3149 42.8539 68.4193 42.3944 68.3323 41.8874L67.4647 36.8291C67.4147 36.5384 67.5855 36.0128 67.7969 35.8069L71.4722 32.2242ZM66.5219 34.4991C65.882 35.123 65.5135 36.2573 65.6643 37.138L66.4031 41.4441L62.5355 39.4111C62.1509 39.2089 61.6582 39.0974 61.1483 39.0974C60.6384 39.0974 60.1456 39.2088 59.7613 39.4111L55.8938 41.4441L56.6323 37.138C56.7833 36.2574 56.4148 35.123 55.7749 34.4989L52.646 31.449L56.9698 30.8203C57.8543 30.6919 58.8191 29.9908 59.2146 29.1894L61.1484 25.2715L63.0822 29.1896C63.478 29.9909 64.4428 30.6919 65.3269 30.8203L69.6513 31.4491L66.5219 34.4991Z" fill="#D0402B"/>
</svg>
