<svg width="59" height="59" viewBox="0 0 59 59" fill="none" xmlns="http://www.w3.org/2000/svg">
<path d="M29.5 0C13.1875 0 0 13.1875 0 29.5C0 45.8125 13.1875 59 29.5 59C45.8125 59 59 45.8125 59 29.5C59 13.1875 45.8125 0 29.5 0ZM20.5957 4.01779C19.0393 6.20164 17.7121 8.50613 16.602 10.9192H9.90573C12.8256 7.83047 16.4814 5.44151 20.5957 4.01779ZM7.79427 13.4288H15.5403C13.7184 18.1223 12.717 23.1294 12.5722 28.2452H2.54581C2.79918 22.7072 4.70552 17.6035 7.79427 13.4288ZM7.79427 45.5712C4.70552 41.3965 2.79918 36.2928 2.54581 30.7548H12.5722C12.717 35.8706 13.7546 40.8777 15.5885 45.5712H7.79427ZM9.90573 48.0808H16.6624C17.7845 50.4939 19.1117 52.8225 20.644 55.0063C16.5176 53.5826 12.8376 51.1816 9.90573 48.0808ZM28.2452 56.4663C26.9904 56.4059 25.7476 56.2611 24.5411 56.044C22.5382 53.5706 20.8249 50.9041 19.4374 48.0928H28.2452V56.4663ZM28.2452 45.5712H18.2912C16.3487 40.8898 15.2387 35.8826 15.0818 30.7548H28.2452V45.5712ZM28.2452 28.2452H15.0818C15.2387 23.1294 16.3366 18.1102 18.2671 13.4288H28.2452V28.2452ZM28.2573 10.9192H28.2452H19.4133C20.8129 8.08384 22.5262 5.41738 24.5411 2.9681C25.7476 2.73885 26.9904 2.60614 28.2573 2.54581V10.9192ZM51.2057 13.4288C54.2945 17.6035 56.2129 22.6951 56.4542 28.2452H46.4278C46.283 23.1294 45.2454 18.1223 43.4114 13.4288H51.2057ZM49.0943 10.9192H42.3376C41.2155 8.50613 39.8883 6.17751 38.344 3.99366C42.4824 5.41738 46.1624 7.8184 49.0943 10.9192ZM30.7548 2.54581C32.0096 2.60614 33.2524 2.75092 34.4589 2.9681C36.4618 5.44151 38.175 8.10798 39.5626 10.9192H30.7548V2.54581ZM30.7548 13.4288H40.7088C42.6513 18.0982 43.7613 23.1174 43.9182 28.2452H30.7548V13.4288ZM30.7548 30.7548H43.9182C43.7613 35.8706 42.6634 40.8898 40.7329 45.5712H30.7548V30.7548ZM30.7427 56.4542V48.0808H30.7548H39.5867C38.1871 50.9162 36.4738 53.5826 34.4589 56.0319C33.2524 56.2611 32.0096 56.3939 30.7427 56.4542ZM38.344 55.0063C39.8763 52.8225 41.2035 50.4939 42.3135 48.0808H49.1063C46.1624 51.1816 42.4824 53.5826 38.344 55.0063ZM43.3753 45.5712C45.1851 40.8777 46.2106 35.8706 46.4157 30.7548H56.4663C56.2129 36.2928 54.3065 41.3965 51.2178 45.5712H43.3753Z" fill="#D0402B"/>
</svg>
